<svg xmlns="http://www.w3.org/2000/svg" width="256" height="256"><path fill-opacity=".016" fill-rule="evenodd" d="M0 128.004v128.004l128.25-.254 128.25-.254.254-127.75L257.008 0H0v128.004m.485.496c0 70.4.119 99.053.265 63.672.146-35.38.146-92.98 0-128C.604 29.153.485 58.1.485 128.5"/><path fill-opacity=".075" fill-rule="evenodd" d="M167 .584c-11.758 2.065-14.984 2.876-19.657 4.943-6.977 3.085-15.567 11.296-20.356 19.458-2.103 3.583-6.302 12.815-9.332 20.515-10.936 27.792-16.107 36.965-27.535 48.846-11.591 12.051-25.235 19.885-45.62 26.194-15.642 4.841-22.354 8.455-28.968 15.599-6.495 7.015-10.805 15.479-13.652 26.811-1.804 7.178-2.055 10.491-1.669 22 .41 12.247.792 14.532 3.972 23.755 4.614 13.384 8.702 20.11 17.839 29.352 5.547 5.611 9.486 8.569 15 11.266 12.283 6.006 18.025 7.014 36.478 6.398 54.314-1.811 101.582-26.565 139.82-73.221 28.697-35.015 42.709-69.777 42.667-105.849-.023-19.439-4.404-35.3-13.406-48.535-8.303-12.207-21.523-21.339-37.081-25.615C199.678.902 172.811-.436 167 .584m-31.32 62.217c-.896.99-2.77 5.736-4.164 10.546-6.863 23.682-20.886 40.844-42.016 51.42-7.32 3.664-17.134 6.752-24.5 7.709-7.565.983-10 2.699-10 7.047 0 2.212.773 4.25 2.125 5.602 1.886 1.886 2.84 2.052 8.476 1.475 8.725-.894 22.046-4.898 30.687-9.223 24.4-12.215 41.042-32.78 49.141-60.728 2.531-8.735 2.497-10.716-.236-13.899-1.968-2.292-7.419-2.263-9.513.051"/><path fill-opacity=".302" fill-rule="evenodd" d="M166.679.985c-15.038 1.904-26.09 7.01-33.251 15.363-5.391 6.29-8.745 12.734-15.989 30.731C106.395 74.512 101.009 83.934 90 95.078c-10.755 10.886-24.798 19.235-41 24.375-22.095 7.009-25.328 8.643-33.047 16.693-5.646 5.889-9.952 13.725-13.108 23.854-3.331 10.69-3.347 31.822-.032 43.395 7.896 27.573 23.945 44.533 47.953 50.673 16.671 4.264 49.803.627 75.155-8.249 39.527-13.838 76.126-44.053 103.347-85.319 23.305-35.329 32.339-80.422 22.534-112.467-6.969-22.774-24.044-39.33-46.502-45.089-8.99-2.306-28.192-3.28-38.621-1.959m-29.327 60.008c-2.817 1.137-2.951 1.398-5.866 11.458-3.057 10.551-8.704 21.982-14.984 30.335-11.18 14.871-31.354 26.372-51.146 29.157-5.444.766-7.319 1.501-9.106 3.567-2.821 3.262-2.839 5.471-.074 8.986 2.115 2.69 2.382 2.751 9.75 2.223 8.507-.609 21.575-4.445 30.574-8.973 24.61-12.385 41.083-32.771 49.12-60.789 2.949-10.281 2.644-13.252-1.585-15.439-3.303-1.708-3.677-1.737-6.683-.525"/><path fill-opacity=".167" fill-rule="evenodd" d="M172.5 1.118c-18.539 1.146-28.911 5.228-37.829 14.886-6.508 7.048-9.03 11.732-17.004 31.581-11.429 28.447-17.017 37.794-29.925 50.055C75.939 108.852 61.177 116.678 41 122.422c-5.225 1.487-11.911 4.138-14.857 5.891-10.772 6.408-19.027 18.185-23.288 33.222-3.053 10.772-3.043 29.204.023 40.965 3.001 11.515 10.156 25.156 17.26 32.91 14.852 16.208 32.381 22.038 59.058 19.642 57.675-5.18 102.806-31.64 141.293-82.837 17.907-23.821 28.504-47.481 33.015-73.715 1.774-10.315 2.048-31.4.514-39.5-3.665-19.349-12.201-34.792-24.262-43.892C214.874 3.879 197.301-.415 172.5 1.118M135.255 62.25c-1.151 1.237-2.844 5.175-3.762 8.75-7.702 30.003-28.619 51.243-58.057 58.954-4.297 1.125-9.323 2.046-11.17 2.046-8.417 0-11.426 10.798-4.068 14.602 3.801 1.966 13.345.621 26.293-3.704 30.045-10.037 50.828-31.858 60.994-64.041 3.305-10.462 3.279-14.111-.12-16.784-3.444-2.71-7.49-2.639-10.11.177"/></svg>